<?xml version="1.0" encoding="UTF-8" standalone="no"?>
<!-- Created with Inkscape (http://www.inkscape.org/) -->

<svg
        version="1.1"
        id="svg9"
        width="494"
        height="494"
        viewBox="0 0 494 494"
        xmlns="http://www.w3.org/2000/svg"
>
  <defs
     id="defs13" />
  <g
     id="g15">
    <g
       id="g333"
       transform="translate(-2e-6,0.15655239)">
      <path
         style="fill:#fdd1b1"
         d="M 247,493 H 56.930238 L 57.215119,428.75 57.5,364.5 l 2.728884,-7.47743 2.728884,-7.47743 4.649744,-6.80514 4.649744,-6.80513 5.121372,-4.32098 5.121372,-4.32098 4.532766,-2.61417 4.532767,-2.61417 4.467233,-1.58014 4.467234,-1.58015 40.94749,-10.46653 40.94749,-10.46653 2.55251,-1.65276 2.55251,-1.65276 7.75,-5.87779 7.75,-5.87779 -0.0587,-12.20506 -0.0587,-12.20506 -7.03643,-4.5 -7.03643,-4.5 -7.24161,-7.56812 -7.24161,-7.56812 -5.03916,-8.18836 -5.03915,-8.18835 -3.06351,-9.24353 -3.06351,-9.24352 -1.05307,-6.5 -1.05308,-6.5 -0.008,-10.25 L 156,166 h -7.95295 -7.95294 l -2.62205,-1.19469 -2.62205,-1.19468 L 133.425,160.85497 132,158.09932 V 141.5 124.90068 l 1.46301,-2.82916 1.46302,-2.82916 1.78698,-0.78217 1.78699,-0.78218 4.70733,-0.589 4.70733,-0.58901 -12.51859,-15 -12.5186,-15 -5.55709,-6.755992 -5.5571,-6.755991 17.86836,-18.59495 17.86836,-18.594951 6,-6.208012 6,-6.208012 L 203.25637,12.034394 247.01274,0.68669521 290.97328,12.093348 334.93383,23.5 358.21691,47.864596 381.5,72.229192 l 0.22141,0.635404 0.2214,0.635404 -17.86362,21.5 -17.86363,21.5 4.64222,0.58901 4.64222,0.589 1.78699,0.78218 1.78698,0.78217 1.46302,2.82916 L 362,124.90068 V 141.5 158.09932 l -1.425,2.75565 -1.42501,2.75566 -2.62205,1.19468 L 353.90589,166 H 345.95295 338 v 10.38953 10.38953 l -1.56886,8.27036 -1.56886,8.27036 -2.90883,7.97038 -2.90883,7.97038 -4.74632,7.61516 -4.74631,7.61515 -7.29149,7.63191 -7.29149,7.63192 -6.9845,4.68609 -6.98451,4.6861 v 11.93859 11.93859 l 9.68315,7.18304 9.68315,7.18305 6.56685,1.83613 6.56685,1.83614 36,9.08118 36,9.08118 7,3.22361 7,3.2236 6.06115,5.0533 6.06115,5.0533 4.70996,6.89328 4.70997,6.89328 2.72889,7.47743 2.72888,7.47743 0.28488,64.25 0.28488,64.25 z"
         id="path355" />
      <path
         style="fill:#f9b88b"
         d="M 247,493 H 56.930238 L 57.215119,428.75 57.5,364.5 l 2.728884,-7.47743 2.728884,-7.47743 4.649744,-6.80514 4.649744,-6.80513 5.121372,-4.32098 5.121372,-4.32098 4.532766,-2.61417 4.532767,-2.61417 4.467233,-1.58014 4.467234,-1.58015 40.94749,-10.46653 40.94749,-10.46653 2.55251,-1.65276 2.55251,-1.65276 7.71806,-5.85348 7.71807,-5.85348 15.31197,19.27063 15.31197,19.27063 6.46997,8.24787 6.46996,8.24788 0.56118,0.002 0.56118,0.002 8.39991,-10.75 8.39992,-10.75 13.31987,-16.725 13.31988,-16.72501 9.65218,7.16007 9.65218,7.16008 6.56685,1.83613 6.56685,1.83614 36,9.08118 36,9.08118 7,3.22361 7,3.2236 6.06115,5.0533 6.06115,5.0533 4.70996,6.89328 4.70997,6.89328 2.72889,7.47743 2.72888,7.47768 0.28488,64.25 0.28488,64.25 z m 3.5,-207.5346 -12,0.35456 -3.5,-0.4511 -3.5,-0.4511 -8.1179,-1.99051 -8.1179,-1.9905 -5.8821,-2.27568 -5.8821,-2.27567 -0.28756,-8.59879 -0.28757,-8.59878 8.07783,3.49238 8.07782,3.49238 9.20974,1.90057 9.20974,1.90057 h 9.5 9.5 l 9.20974,-1.90057 9.20974,-1.90057 8.04026,-3.47614 L 291,259.22031 v 8.42538 8.42538 l -4.72973,2.0274 -4.72973,2.0274 -9.52027,2.49248 -9.52027,2.49248 z M 159.91262,158.5 l -3.75535,11 -0.0786,-15.75 L 156,138 h -3 -3 v -9.48197 -9.48197 L 132.35341,97.768031 114.70683,76.5 113.21342,74.766571 111.72002,73.033143 129.61001,54.41563 147.5,35.798116 l 6,-6.208012 6,-6.208012 L 203.25637,12.034394 247.01274,0.68669521 290.94621,12.093348 334.87967,23.5 358.18983,47.899237 381.5,72.298475 v 0.816974 0.816973 L 362.75,96.504392 344,119.07636 V 128.53818 138 h -3 -3 l -0.0786,15.75 -0.0786,15.75 -3.75535,-11 -3.75536,-11 -0.91601,0.0238 -0.91601,0.0238 -9,1.69329 -9,1.69329 -11,1.27224 -11,1.27224 h -41.5 -41.5 l -11,-1.27224 -11,-1.27224 -9,-1.69329 -9,-1.69329 -0.91601,-0.0238 -0.91601,-0.0238 -3.75536,11 z"
         id="path353" />
      <path
         style="fill:#fde151"
         d="M 247,493 H 56.930238 L 57.215119,428.75 57.5,364.5 l 2.728884,-7.47743 2.728884,-7.47743 4.649744,-6.80514 4.649744,-6.80513 5.121372,-4.32098 5.121372,-4.32098 4.532766,-2.61417 4.532767,-2.61417 4.467233,-1.58014 4.467234,-1.58015 40.94749,-10.46653 40.94749,-10.46653 2.55251,-1.65276 2.55251,-1.65276 7.71806,-5.85348 7.71807,-5.85348 15.31197,19.27063 15.31197,19.27063 6.46997,8.24787 6.46996,8.24788 0.56118,0.002 0.56118,0.002 8.39991,-10.75 8.39992,-10.75 13.31987,-16.725 13.31988,-16.72501 9.65218,7.16007 9.65218,7.16008 6.56685,1.83613 6.56685,1.83614 36,9.08118 36,9.08118 7,3.22361 7,3.2236 6.06115,5.0533 6.06115,5.0533 4.70996,6.89328 4.70997,6.89328 2.72889,7.47743 2.72888,7.47768 0.28488,64.25 0.28488,64.25 z m -87.19167,-334.5 -3.63475,11 -0.0868,-15.75 L 156,138 h -3 -3 v -9.53622 -9.53622 L 132.34184,97.713781 114.68368,76.5 113.20185,74.766571 111.72002,73.033143 129.61001,54.41563 147.5,35.798116 l 6,-6.208012 6,-6.208012 L 203.25637,12.034394 247.01274,0.68669521 290.94621,12.093348 334.87967,23.5 358.18983,47.899237 381.5,72.298475 v 0.842142 0.842142 L 362.75,96.478342 344,118.97393 V 128.48696 138 h -3 -3 l -0.0868,15.75 -0.0868,15.75 -3.63475,-11 -3.63475,-11 -0.13149,-0.26969 -0.13148,-0.2697 -6.55375,1.51992 -6.55374,1.51991 -13.34323,1.70147 -13.34323,1.70147 h -43.5 -43.5 l -13.34323,-1.70147 -13.34323,-1.70147 -6.55374,-1.51991 -6.55375,-1.51992 -0.13148,0.2697 -0.13149,0.26969 -3.63475,11 z"
         id="path351" />
      <path
         style="fill:#9faccb"
         d="M 247,493 H 56.930238 L 57.215119,428.75 57.5,364.5 l 2.728884,-7.47743 2.728884,-7.47743 4.649744,-6.80514 4.649744,-6.80513 5.121372,-4.32098 5.121372,-4.32098 4.532766,-2.61417 4.532767,-2.61417 4.467233,-1.58014 4.467234,-1.58015 40.94749,-10.46653 40.94749,-10.46653 2.55251,-1.65276 2.55251,-1.65276 7.71806,-5.85348 7.71807,-5.85348 15.31197,19.27063 15.31197,19.27063 6.46997,8.24787 6.46996,8.24788 0.56118,0.002 0.56118,0.002 8.39991,-10.75 8.39992,-10.75 13.31987,-16.725 13.31988,-16.72501 9.65218,7.16007 9.65218,7.16008 6.56685,1.83613 6.56685,1.83614 36,9.08118 36,9.08118 7,3.22361 7,3.2236 6.06115,5.0533 6.06115,5.0533 4.70996,6.89328 4.70997,6.89328 2.72889,7.47743 2.72888,7.47768 0.28488,64.25 0.28488,64.25 z m -87.19167,-334.5 -3.63475,11 -0.0868,-26.35941 -0.0868,-26.3594 -3.5677,0.41651 -3.56769,0.4165 L 131.77911,97.057102 114.69362,76.5 113.20682,74.766571 111.72002,73.033143 129.61001,54.41563 147.5,35.798116 l 6,-6.208012 6,-6.208012 L 203.25637,12.034394 247.01274,0.68669521 290.94621,12.093348 334.87967,23.5 358.18983,47.899237 381.5,72.298475 v 0.830241 0.830241 l -18.16568,21.829565 -18.16568,21.829568 -3.58432,-0.41845 -3.58432,-0.41845 -0.0868,26.3594 -0.0868,26.35941 -3.63475,-11 -3.63475,-11 -0.13149,-0.26969 -0.13148,-0.2697 -6.55375,1.51992 -6.55374,1.51991 -13.34323,1.70147 -13.34323,1.70147 h -43.5 -43.5 l -13.34323,-1.70147 -13.34323,-1.70147 -6.55374,-1.51991 -6.55375,-1.51992 -0.13148,0.2697 -0.13149,0.26969 -3.63475,11 z M 249,97.404577 l 3.5,-0.525188 6.12338,-2.827901 6.12338,-2.827902 4.19903,-3.793579 4.19904,-3.79358 1.9828,-3.886606 1.9828,-3.886605 0.52606,-4.681608 L 278.16254,66.5 275.58127,59.727171 273,52.954342 273.022,49.227171 273.044,45.5 l 2.03699,-4.5 2.03699,-4.5 2.34239,-2.5 2.34239,-2.5 -2.94544,-5.157216 -2.94544,-5.157215 -3.7059,1.023667 -3.7059,1.023666 -6.0612,-0.486144 -6.06121,-0.486143 -4.68879,-2.074077 -4.6888,-2.074077 -4.6888,2.074077 -4.68879,2.074077 -6.06121,0.486143 -6.0612,0.486144 -3.71895,-1.027269 -3.71894,-1.027269 -2.97922,5.1602 -2.97923,5.160201 2.38922,2.500617 2.38922,2.500618 2.03699,4.5 2.03699,4.5 0.022,3.332028 0.022,3.332028 -2.61444,7.574715 -2.61444,7.574714 0.59575,4.346456 0.59575,4.346457 1.94627,3.815014 1.94628,3.815015 4.02735,3.638475 4.02736,3.638474 4.29506,2.208062 4.29506,2.208063 4,1.300132 4,1.300131 3.5,-0.525187 z"
         id="path349" />
      <path
         style="fill:#979ca9"
         d="M 247,493 H 56.903267 l 0.354021,-63.25 0.354022,-63.25 1.667786,-5.49244 1.667787,-5.49244 3.276558,-6.50756 L 67.5,342.5 l 7.5,-7.60055 7.5,-7.60054 7.5,-3.63605 7.5,-3.63604 37.5,-9.59207 37.5,-9.59206 5.55847,-1.49617 5.55846,-1.49616 9.42209,-6.93166 9.42209,-6.93166 0.64256,0.25648 0.64257,0.25648 6.09054,7.5 6.09054,7.5 15.22359,19.25 15.22359,19.25 h 0.64361 0.64361 l 15.91914,-20.08256 15.91914,-20.08255 5.37067,-6.66745 5.37066,-6.66744 h 0.94873 0.94872 l 8.86779,6.44906 8.86779,6.44906 6.31282,1.81091 6.31282,1.81091 37,9.48874 37,9.48874 7.5,3.66053 7.5,3.66053 7.53052,7.59076 7.53052,7.59076 3.24604,6.50756 3.24604,6.50756 1.66778,5.49244 1.66779,5.49244 0.35402,63.25 0.35402,63.25 z m -87.19167,-334.5 -3.63475,11 -0.0868,-26.32662 -0.0868,-26.32662 -3.4762,0.2995 -3.4762,0.29949 -18.54213,-22.224691 -18.54212,-22.22469 23.57776,-24.444506 23.57777,-24.444506 5.19056,-1.47157 L 169.5,21.164216 208.28458,11.045344 247.06916,0.92647112 287.78458,11.512881 328.5,22.099291 l 3.18898,1.007768 3.18897,1.007767 23.60055,24.415367 23.60054,24.415367 -18.56332,22.250094 -18.56332,22.250096 -3.4762,-0.29949 -3.4762,-0.2995 -0.0868,26.32662 -0.0868,26.32662 -3.63475,-11 -3.63475,-11 -0.15574,-0.29394 -0.15574,-0.29395 -9.87272,1.99359 -9.87272,1.99359 -13,1.27207 -13,1.27207 h -37.5 -37.5 l -13,-1.27207 -13,-1.27207 -9.87272,-1.99359 -9.87272,-1.99359 -0.15574,0.29395 -0.15574,0.29394 -3.63475,11 z M 249,97.404577 l 3.5,-0.525188 6.12338,-2.827901 6.12338,-2.827902 4.19903,-3.793579 4.19904,-3.79358 1.9828,-3.886606 1.9828,-3.886605 0.52606,-4.681608 L 278.16254,66.5 275.58127,59.727171 273,52.954342 273.022,49.227171 273.044,45.5 l 2.03699,-4.5 2.03699,-4.5 2.34239,-2.5 2.34239,-2.5 -2.94544,-5.157216 -2.94544,-5.157215 -3.7059,1.023667 -3.7059,1.023666 -6.0612,-0.486144 -6.06121,-0.486143 -4.68879,-2.074077 -4.6888,-2.074077 -4.6888,2.074077 -4.68879,2.074077 -6.06121,0.486143 -6.0612,0.486144 -3.71895,-1.027269 -3.71894,-1.027269 -2.97922,5.1602 -2.97923,5.160201 2.38922,2.500617 2.38922,2.500618 2.03699,4.5 2.03699,4.5 0.022,3.332028 0.022,3.332028 -2.61444,7.574715 -2.61444,7.574714 0.59575,4.346456 0.59575,4.346457 1.94627,3.815014 1.94628,3.815015 4.02735,3.638475 4.02736,3.638474 4.29506,2.208062 4.29506,2.208063 4,1.300132 4,1.300131 3.5,-0.525187 z"
         id="path347" />
      <path
         style="fill:#6d82b5"
         d="M 247,493 H 56.890774 l 0.367399,-63.25 0.3674,-63.25 1.660655,-5.49244 1.660655,-5.49244 3.276558,-6.50756 L 67.5,342.5 l 7.5,-7.60055 7.5,-7.60054 7.5,-3.63605 7.5,-3.63604 37,-9.43775 37,-9.43775 6.52393,-1.87869 6.52393,-1.87869 8.87857,-6.69697 L 202.305,284 l 0.5975,0.0457 0.5975,0.0457 14.04388,17.70432 14.04389,17.70432 7.45611,9.68678 7.45612,9.68677 0.5,0.003 0.5,0.003 16.5,-21.01727 16.5,-21.01726 5,-6.38713 5,-6.38714 0.5975,-0.0353 0.5975,-0.0353 8.87857,6.69697 8.87857,6.69697 6.52393,1.86287 6.52393,1.86287 37,9.43454 37,9.43454 7.2543,3.56237 7.25429,3.56237 5.97566,5.5324 5.97565,5.5324 4.04245,6.16085 4.04246,6.16085 2.7092,8 2.7092,8 0.32301,63.25 L 437.10923,493 Z M 159.7214,157.65357 156.21017,168.5 156.10508,142.67338 156,116.84676 l -3.46194,0.29827 -3.46195,0.29826 L 131.03806,95.711209 113,73.979126 v -0.917501 -0.9175 L 136.10722,48.081734 159.21445,24.019344 162.85722,23.06493 166.5,22.110516 206.8317,11.579519 247.16341,1.0485227 289.3317,12.067931 331.5,23.087339 l 1.69868,0.507431 1.69869,0.507432 23.05131,24.016281 L 381,72.134764 v 0.922181 0.922181 l -18.03806,21.732083 -18.03805,21.732081 -3.46195,-0.29826 -3.46194,-0.29827 -0.10508,25.82662 -0.10509,25.82662 -3.51123,-10.84643 -3.51124,-10.84642 -2.63368,0.49614 -2.63368,0.49614 -13.5,2.09252 -13.5,2.09253 -25.75,1.11971 -25.75,1.11972 -25.75,-1.11972 -25.75,-1.11971 -13.5,-2.09253 -13.5,-2.09252 -2.63368,-0.49614 -2.63368,-0.49614 z m 88.32545,-59.955805 4.54685,-0.365139 5.88328,-2.693458 5.88329,-2.693457 4.22507,-3.46213 4.22508,-3.46213 2.59479,-5.20707 L 278,74.607311 V 69.840676 65.074041 L 276.1369,60.28702 274.2738,55.5 l -0.64645,-3.559348 -0.64644,-3.559349 1.45594,-4.837743 1.45595,-4.837744 3.202,-3.303622 3.202,-3.303623 -2.8984,-5.584242 -2.8984,-5.584241 -4,0.784956 -4,0.784956 -5.53089,-0.127942 -5.53088,-0.127941 -5.21912,-2.245203 L 247,17.753712 l -5.21911,2.245202 -5.21912,2.245203 -5.53088,0.127941 L 225.5,22.5 l -4,-0.784956 -4,-0.784956 -2.8984,5.584241 -2.8984,5.584242 3.202,3.303623 3.202,3.303622 1.45595,4.837744 1.45594,4.837743 -0.64644,3.559349 L 219.7262,55.5 217.8631,60.28702 216,65.074041 v 4.495098 4.495098 l 1.53094,3.664055 1.53094,3.664055 2.35697,3.090147 2.35697,3.090148 4.02706,2.790753 4.02706,2.790754 5.83503,2.454378 5.83503,2.454377 z"
         id="path345" />
      <path
         style="fill:#4f6791"
         d="m 118,493 h -5 V 483.5 474 H 99.5 86 v -70 -70 h 11 11 v 61 61 h 2.5 2.5 v -1.5 -1.5 h 5 5 v 1.5 1.5 h 10 10 v -1.5 -1.5 h 17.60699 17.60699 l -0.73488,-1.75 -0.73487,-1.75 -1.9741,-5 -1.97409,-5 -0.52233,-7.5 -0.52232,-7.5 1.19781,-5.76258 1.19782,-5.76258 3.42004,-6.83627 3.42005,-6.83626 5.25644,-4.90991 5.25645,-4.9099 2.45326,-1.58219 2.45326,-1.58219 -11.13149,-40.90906 -11.13148,-40.90906 -0.32178,-1.91414 -0.32177,-1.91413 4.8148,-1.24879 4.8148,-1.24878 0.37911,1.16292 0.3791,1.16292 10.06405,37.5 10.06406,37.5 0.74204,1.66567 0.74204,1.66567 20.18975,-19.41567 L 245.87951,340 h 1.08876 1.08876 l 18.04513,17.25 18.04512,17.25 0.67636,0.21289 0.67636,0.21289 4.31708,-7.71289 4.31709,-7.71289 7.98362,-29.5 7.98363,-29.5 0.39294,-1.18495 0.39295,-1.18495 3.80634,0.98947 3.80635,0.98947 1.1708,0.3837 1.1708,0.38371 -5.49064,21.1586 -5.49064,21.1586 0.45008,0.45008 0.45008,0.45008 6.36976,-3.46913 6.36976,-3.46914 7.5,-2.32777 7.5,-2.32777 14.5,0.0376 14.5,0.0376 8.21451,2.74467 8.2145,2.74466 7.49709,5.01435 7.49709,5.01436 5.09742,5.70335 5.09742,5.70335 4.44099,8.85165 4.44098,8.85165 v 1.89835 1.89835 h -10.94547 -10.94547 l -3.65672,-6.95874 -3.65672,-6.95875 -4.92448,-4.60627 -4.92448,-4.60628 -6.63825,-3.10641 -6.63825,-3.10641 -10.15571,-0.45167 -10.1557,-0.45168 -5.92938,1.71181 -5.92937,1.71181 -5.792,3.07301 -5.79201,3.07301 -5.61817,6.06829 -5.61816,6.06829 -2.95453,6.31367 -2.95452,6.31368 -1.60873,9.45632 -1.60872,9.45632 1.63967,9.63826 1.63968,9.63825 3.57995,7.24354 3.57995,7.24354 6.33084,5.92219 6.33085,5.9222 3.57408,1.69601 3.57408,1.69601 H 341.40113 351 v 2.14434 2.14434 l 7.4243,-0.5615 7.4243,-0.5615 3.8257,-1.691 3.8257,-1.691 3.32662,-1.64184 3.32662,-1.64184 4.8277,-5.08897 4.82769,-5.08897 3.11008,-6.16103 3.11008,-6.16103 H 407.0144 418 v 1.89835 1.89835 l -4.66124,9.31128 -4.66124,9.31127 -7.09466,7.04038 -7.09467,7.04037 -6.74409,3.8818 -6.7441,3.88181 v 10.86819 10.8682 h -5 -5 v -9.475 -9.475 l -3.25,0.725 -3.25,0.725 -13,-0.0203 -13,-0.0203 -7.5,-2.30802 -7.5,-2.30802 -7.2029,-3.92171 -7.20289,-3.9217 H 300.0471 291 v -5 -5 h 3.53239 3.5324 l -3.92218,-5.25 -3.92217,-5.25 -2.49634,-5 -2.49635,-5 -2.16502,-7 -2.16502,-7 -0.57543,-9.5 -0.57543,-9.5 1.11858,-7 1.11859,-7 -8.74201,-8.15751 -8.74201,-8.15751 -0.63633,0.65751 -0.63633,0.65751 -3.63958,8.48585 -3.63957,8.48586 0.63045,4.51414 0.63045,4.51415 2.34617,3.5 2.34616,3.5 2.50451,5.5 2.50451,5.5 1.09331,7.06636 1.0933,7.06636 -1.09547,6.85739 -1.09547,6.85739 -2.04544,4.75474 -2.04543,4.75473 2.09692,19.82152 2.09693,19.82151 -0.005,0.75 -0.005,0.75 H 246.9195 226.8399 l 0.65999,-6.75 0.65998,-6.75 0.487,-1.75 0.487,-1.75 h -8.38589 -8.38589 l -5.4315,-1.61031 -5.4315,-1.61031 -4,-2.02276 -4,-2.02277 -3.6439,-2.86692 -3.64391,-2.86693 h -9.10609 -9.1061 v 5.5 5.5 h -22.5 -22.5 v 9.5 9.5 h -5 z m 103.20539,-35.19104 7.70539,-0.31974 0.95489,-0.99461 0.95489,-0.99461 2.58972,-25.01467 L 236,405.47065 v -1.11218 -1.11218 l -4.93538,-2.12315 -4.93538,-2.12314 -6.31462,0.01 -6.31462,0.01 -5.04087,2.34733 -5.04086,2.34733 -2.75693,3.27643 -2.75694,3.27643 -2.2022,4.11647 -2.2022,4.11647 v 10 10 l 2.2022,4.11647 2.2022,4.11647 2.57127,3.05578 2.57127,3.05578 5.22653,2.64209 5.22653,2.6421 7.70539,-0.31973 z m 14.05803,-74.92727 0.76342,0.11831 -1.61071,-3.75 -1.61071,-3.75 -1.00054,-2.75 -1.00053,-2.75 -0.65218,0.039 -0.65217,0.039 -6,5.43675 -6,5.43675 5.5,0.14258 5.5,0.14258 3,0.76337 3,0.76337 0.76342,0.11832 z M 159.52247,158 156.06669,168.5 156.03334,142.68664 156,116.87328 152.75,117.18664 149.5,117.5 131.21307,95.610799 112.92613,73.721598 113.21482,72.855535 113.50351,71.989472 135.92006,48.494736 158.33661,25 h 0.63935 0.63934 l 15.50274,38.75 15.50273,38.75 2.93962,-0.1002 2.93961,-0.10019 12.5,-1.86986 12.5,-1.869856 h 25.5 25.5 l 12.5,1.869856 12.5,1.86986 2.93961,0.10019 2.93962,0.1002 L 318.88196,63.75 334.3847,25 h 0.66341 0.66342 l 22.39423,23.535451 22.39424,23.535451 -0.11322,1.310531 -0.11322,1.310531 -17.79759,21.365088 -17.79758,21.365088 -3.3392,-0.28769 L 338,116.84676 337.935,142.67338 337.8701,168.5 334.45522,158 l -3.41488,-10.5 -0.0202,-0.73095 -0.0202,-0.73095 2.5,-0.62746 2.5,-0.62746 v -0.76966 -0.76967 l -5.75,-2.11362 -5.75,-2.11362 -9.5,-2.48817 -9.5,-2.48817 -11.5,-1.95653 -11.5,-1.95653 -15,-1.18644 -15,-1.18644 -15.32195,0.63898 -15.32195,0.63898 -11.67805,1.52102 -11.67805,1.52102 -11.06258,2.47097 -11.06258,2.47098 -9.93742,3.39391 -9.93742,3.39392 3.25,1.19577 3.25,1.19577 -0.0109,0.65218 -0.0109,0.65217 -3.45578,10.5 z"
         id="path343" />
      <path
         style="fill:#455e87"
         d="m 118,493 h -5 V 483.5 474 H 99.5 86 v -70 -70 h 11 11 v 61 61 h 2.5 2.5 v -1.5 -1.5 h 5 5 v 1.5 1.5 h 10 10 v -1.5 -1.5 h 17.60699 17.60699 l -0.72156,-1.75 -0.72156,-1.75 -1.84251,-5.1029 -1.84251,-5.1029 -0.64396,-6.3971 -0.64395,-6.3971 1.14337,-6.5 1.14337,-6.5 2.94258,-6.09207 2.94258,-6.09207 4.02447,-4.57205 4.02448,-4.57204 4.4793,-2.83382 4.47931,-2.83382 -0.43326,-1.50207 -0.43325,-1.50206 -11.12161,-40.88384 -11.1216,-40.88383 0.81617,-0.78835 0.81616,-0.78835 3.6761,-0.67524 3.67609,-0.67524 0.91059,3.34742 0.9106,3.34743 9.91331,36.74613 9.91331,36.74612 0.59956,0.004 0.59956,0.004 20.27832,-19.25 20.27831,-19.25 h 0.76917 0.76918 l 18.7149,17.83468 18.7149,17.83468 2.80971,-5.57029 2.80971,-5.57029 1.96401,-2.76439 1.96402,-2.76439 7.67076,-28.5 7.67077,-28.5 0.5405,-1.84311 0.5405,-1.8431 3.65306,0.67092 3.65306,0.67092 0.81796,0.79015 0.81797,0.79015 -5.53647,21.3302 -5.53647,21.3302 0.37403,0.37402 0.37402,0.37402 3.84448,-2.38067 3.84448,-2.38068 5,-2.09444 5,-2.09443 5.5,-1.64337 5.5,-1.64337 10.01818,-0.59125 10.01818,-0.59124 8.46589,1.71541 8.4659,1.71541 7.24439,3.34711 7.24439,3.34711 5.92469,4.55895 5.92468,4.55894 4.74182,6.26607 4.74183,6.26608 2.80074,6 2.80074,6 0.66269,2.75 0.6627,2.75 h -11.04575 -11.04575 l -3.19452,-6.48901 -3.19453,-6.48901 -5.0437,-5.0437 -5.0437,-5.04369 -6.28977,-3.00184 -6.28978,-3.00183 -6.78466,-0.82194 -6.78466,-0.82194 -7.01108,0.78112 -7.01109,0.78113 -5.60812,2.09827 -5.60812,2.09826 -5.53642,3.96454 -5.53641,3.96454 -3.46881,4.76255 -3.46881,4.76255 -2.21297,4.38148 -2.21297,4.38149 -1.45126,4.61851 -1.45126,4.61852 -0.56073,9 -0.56072,9 1.54475,7.246 1.54476,7.24601 2.63196,5.25399 2.63197,5.254 3.86201,5.12675 3.86201,5.12676 6.17461,4.12324 6.17461,4.12325 H 340.61395 351 v 2.5 2.5 l 0.75,-0.0309 0.75,-0.0309 7.3126,-0.94957 7.31259,-0.94956 2.68741,-1.36771 2.6874,-1.3677 3.78167,-1.82638 3.78166,-1.82638 4.83647,-4.83647 4.83647,-4.83646 3.19453,-6.48901 3.19452,-6.48901 h 11.04575 11.04575 l -0.6627,2.75 -0.66269,2.75 -2.80074,6 -2.80074,6 -4.74183,6.26608 -4.74182,6.26607 -5.74291,4.41907 -5.74292,4.41908 -4.66023,2.26411 L 381,470.39873 v 11.30074 11.30073 h -5 -5 v -9.51182 -9.51182 l -4.25,0.76182 -4.25,0.76182 -11.5,-0.0893 -11.5,-0.0893 -4.5,-1.24852 -4.5,-1.24853 -6.5,-2.57026 -6.5,-2.57026 -3.73013,-2.34196 -3.73013,-2.34195 H 300.51987 291 v -5 -5 h 3.47979 3.47979 l -4.89185,-7.25 -4.89185,-7.25 -2.62567,-6.5 -2.62568,-6.5 -1.57479,-9 -1.57479,-9 0.76314,-8.5 0.76314,-8.5 0.0994,-3 0.0994,-3 -8.18668,-7.75 -8.18668,-7.75 h -0.92628 -0.92628 l -3.65184,8.75 -3.65184,8.75 0.0148,4.37391 0.0148,4.3739 3.99073,5.97616 3.99072,5.97616 2.00928,6.50527 2.00927,6.50527 v 8.46835 8.46835 l -2.63149,7.67631 -2.63148,7.67632 0.16732,3.5 0.16733,3.5 1.77546,16.75 1.77546,16.75 h -19.6132 -19.61321 l 0.75056,-6.75 0.75055,-6.75 0.0502,-2 0.0502,-2 -9.2488,-0.011 -9.2488,-0.011 -6,-1.95407 -6,-1.95407 -6.25972,-4.28495 -6.25971,-4.28494 h -8.99029 -8.99028 v 5.5 5.5 h -22.5 -22.5 v 9.5 9.5 h -5 z M 222.25,458.39169 225,458 l 2.94896,-0.56825 2.94896,-0.56824 0.59031,-4.18176 0.59031,-4.18175 2.28013,-22.27744 2.28012,-22.27744 -1.14609,-0.95118 -1.14609,-0.95117 -3.85237,-1.60962 -3.85236,-1.60962 h -6.84536 -6.84537 l -4.22558,2.17784 -4.22557,2.17784 -2.83921,2.66039 -2.83922,2.6604 -2.33364,4 -2.33364,4 -1.03337,5.69685 -1.03337,5.69686 0.87891,5.40022 0.87891,5.40023 1.42578,3.40292 1.42577,3.40292 2.81864,3.34294 2.81863,3.34294 3.97701,2.51057 3.977,2.51057 4.6059,0.78818 4.6059,0.78818 z m 12,-75.51 L 236,383 l 0.003,-0.75 0.003,-0.75 -2.65289,-6.25 -2.6529,-6.25 h -0.63128 -0.63129 l -5.93739,6 -5.93739,6 4.46869,0.11831 4.4687,0.11832 3,0.76337 3,0.76337 1.75,0.11832 z M 156.99819,165.33914 156.12677,167.5 156.06339,142.25 156,117 h -3.35499 -3.35499 L 131.39501,95.471292 113.5,73.942585 v -0.850031 -0.850031 l 22.22979,-23.140672 22.2298,-23.140672 0.61882,-0.230589 0.61882,-0.23059 15.37653,38.425146 15.37653,38.425144 0.77486,0.71806 0.77485,0.71805 11.47421,-1.88215 11.47422,-1.88215 16.27578,-0.976665 L 247,98.068768 l 16.33752,0.980371 16.33751,0.980371 11.87697,1.93743 11.87696,1.93743 0.12633,-0.20218 L 303.68163,103.5 318.98776,65 334.2939,26.5 334.89695,25.825375 335.5,25.15075 358,48.718085 380.5,72.285421 v 0.802265 0.802266 L 362.67271,95.444976 344.84542,117 h -3.40554 -3.40554 l -0.26717,25.25 -0.26717,25.25 -3.15759,-10.33423 -3.15759,-10.33424 2.90759,-1.01359 L 337,144.80435 v -0.83033 -0.83032 l -5.75,-2.18244 -5.75,-2.18244 -13,-3.28172 -13,-3.28172 -12,-1.84716 -12,-1.84715 H 247 218.5 l -12,1.84715 -12,1.84716 -13,3.28172 -13,3.28172 -5.75,2.18244 -5.75,2.18244 v 0.83032 0.83033 l 2.94126,1.02533 2.94126,1.02533 -2.50646,8.16164 -2.50646,8.16163 z"
         id="path341" />
      <path
         style="fill:#455478"
         d="m 223.5,475.54845 -9,0.34916 -4,-0.87834 -4,-0.87834 -4.13575,-1.4858 -4.13574,-1.48579 -4.15078,-2.62027 -4.15079,-2.62028 -4.01881,-3.63075 -4.01881,-3.63075 -2.44,-4.16355 -2.44,-4.16355 -1.98784,-5.77776 -1.98784,-5.77776 -0.61786,-6.14234 -0.61785,-6.14233 1.16686,-6.37032 1.16685,-6.37033 2.28511,-5.12967 2.2851,-5.12968 3.97905,-5 3.97906,-5 5.92002,-4.04823 5.92002,-4.04822 4.5,-1.81211 4.5,-1.81211 8.10756,-0.52174 8.10756,-0.52173 7.89244,1.73345 7.89244,1.73345 5,2.64862 5,2.64862 4.53918,4.5 4.53917,4.5 3.12414,5.5 3.12414,5.5 1.71146,5.93514 1.71147,5.93515 -0.50021,9.56485 -0.5002,9.56486 -2.19239,5.73921 -2.19238,5.73921 -3.25274,4.76079 -3.25273,4.76079 -6.10523,4.65038 -6.10523,4.65038 -5.82422,2.19926 -5.82423,2.19926 z m -1,-17.11824 5,-0.5314 4,-2.03901 4,-2.03901 2.83921,-2.66039 2.83922,-2.6604 2.33364,-4 2.33364,-4 1.08255,-5.96288 1.08254,-5.96288 -1.07828,-6.03712 -1.07829,-6.03712 -2.342,-4 -2.342,-4 -3.33512,-3.19932 -3.33511,-3.19932 -4,-1.71613 -4,-1.71614 -6.5,0.0322 -6.5,0.0322 -3.63956,1.53613 -3.63957,1.53614 -4.18285,3.77896 -4.18285,3.77895 -1.81185,3.56822 -1.81184,3.56821 -1.20881,5.85682 -1.20882,5.85683 1.22117,6.47194 1.22117,6.47194 3.1219,4.59921 3.12191,4.59921 3.71348,2.96734 3.71348,2.96734 4.78652,1.3355 4.78652,1.33549 5,-0.53141 z m 129.61901,17.45217 -6.61901,-0.11762 -4.66914,-0.78791 -4.66915,-0.78792 -5.83085,-1.68533 -5.83086,-1.68533 -8,-4.12587 -8,-4.12588 -5.31971,-4.99424 -5.31971,-4.99425 -3.40978,-4.64505 -3.40978,-4.64505 -2.97736,-6.0009 -2.97736,-6.00091 -1.97212,-7.11665 -1.97212,-7.11665 -0.65434,-7.77641 -0.65433,-7.77641 1.54775,-10.18838 1.54776,-10.18838 3.96416,-8.02768 3.96416,-8.02769 2.9835,-4.28393 2.9835,-4.28394 4.83789,-4.52622 4.83789,-4.52622 3.06098,-2.11397 3.06097,-2.11396 6.13984,-3.09938 6.13985,-3.09939 7.79918,-2.23319 7.79918,-2.23319 13,0.0584 13,0.0584 8,2.6289 8,2.62889 5.86107,3.52938 5.86106,3.52937 3.63894,3.14216 3.63893,3.14215 4.30008,5.11392 4.30009,5.11392 3.38263,7 3.38263,7 0.67569,2.75 0.6757,2.75 h -10.97113 -10.97114 l -3.12895,-6.3558 -3.12895,-6.3558 -5.01792,-5.0977 -5.01792,-5.09769 -6.26908,-2.99196 -6.26908,-2.99196 -6.83519,-1.09192 -6.8352,-1.09193 -7.32743,1.01915 -7.32743,1.01915 -5.28588,2.00848 -5.28588,2.00848 -5.29916,3.64966 -5.29915,3.64967 -3.94699,4.95722 -3.947,4.95721 -2.59708,5.48979 -2.59709,5.48979 -1.41222,6.66308 -1.41222,6.66308 v 6.5 6.5 l 1.41222,6.66308 1.41222,6.66308 2.59709,5.48979 2.59708,5.48979 3.947,4.95721 3.94699,4.95722 5.27634,3.61906 5.27633,3.61906 5.62741,1.92481 5.6274,1.92482 7.15474,1.1101 7.15473,1.11009 6.52519,-1.0424 6.52519,-1.04241 6.48958,-3.06617 6.48957,-3.06618 4.87585,-4.87585 4.87584,-4.87584 3.21453,-6.52963 3.21452,-6.52963 h 10.97114 10.97113 l -0.6757,2.75 -0.67569,2.75 -3.37872,7 -3.37872,7 -4.804,5.74898 -4.80399,5.74898 -5.5,4.11394 -5.5,4.11393 -6.69626,3.37259 -6.69627,3.3726 -8.68472,1.51449 -8.68473,1.51449 -6.61901,-0.11762 z M 126.85247,474 H 86 v -70 -70 h 11 11 v 60.90122 60.90122 l 29.94978,-0.38698 29.94979,-0.38698 0.56193,0.90923 0.56193,0.90922 -0.65924,8.57654 L 167.70495,474 Z"
         id="path339" />
      <path
         style="fill:#394b6c"
         d="m 223.24243,475.49541 -8.74243,0.47252 -5.86592,-1.48711 -5.86593,-1.48711 -6.12108,-3.24686 -6.12109,-3.24685 -5.51299,-5.57932 -5.51299,-5.57931 -2.70691,-6.5211 -2.70692,-6.52109 -1.09161,-6.83323 -1.09161,-6.83323 1.05821,-6.82032 1.05821,-6.82033 1.65605,-4.24604 1.65604,-4.24603 3.37216,-5.16058 3.37215,-5.16058 4.21212,-3.42338 4.21211,-3.42337 4.52465,-2.629 4.52466,-2.62901 6.47534,-1.66355 6.47535,-1.66355 8,0.59964 8,0.59964 6.00912,1.86226 6.00912,1.86227 3.99088,2.52383 3.99088,2.52384 3.05364,2.89077 3.05363,2.89077 3.16609,4.63617 3.16609,4.63618 2.14412,5.36382 2.14412,5.36383 0.51738,8.61877 0.51738,8.61876 -1.27224,5.38124 -1.27223,5.38123 -2.81411,6.00184 -2.8141,6.00184 -4.01822,4.18178 -4.01822,4.18177 -4.60881,3.17094 -4.60881,3.17095 -5.42543,1.90688 -5.42542,1.90688 z m -0.86346,-17.00338 5.87897,-0.48833 3.62103,-2.15889 3.62103,-2.1589 3.33763,-3.09295 3.33763,-3.09296 1.77661,-3.5 1.77661,-3.5 1.25423,-5.32808 1.25424,-5.32809 -0.68433,-5.17191 -0.68433,-5.17192 -1.98349,-4.5 -1.9835,-4.5 -3.70065,-3.83473 -3.70065,-3.83474 -4,-2.10459 -4,-2.10459 -7,-0.003 -7,-0.003 -4.5,2.06685 -4.5,2.06684 -3.40159,3.37585 -3.40159,3.37584 -2.30064,4.94359 -2.30064,4.9436 -0.65769,5.26397 -0.65769,5.26397 1.24568,5.29243 1.24568,5.29244 1.82243,3.62821 1.82244,3.62822 4.70093,4.13792 4.70093,4.13793 4.59087,1.47403 4.59088,1.47404 5.87897,-0.48832 z M 351.5,475.87858 l -6,-0.11382 -4.84025,-0.81239 -4.84025,-0.81239 -6.65975,-2.03791 -6.65975,-2.03791 -8,-4.57565 -8,-4.57565 -3.84407,-3.70643 -3.84407,-3.70643 -4.28644,-6 -4.28644,-6 -2.68493,-5.34589 -2.68492,-5.34588 -2.01855,-7.65412 -2.01855,-7.65411 -0.0371,-10.5 -0.0371,-10.5 1.08586,-6.37607 1.08586,-6.37606 3.09588,-6.62394 3.09588,-6.62393 3.1077,-5 3.10769,-5 4.58169,-4.8419 4.58169,-4.84191 5.21672,-3.37438 5.21672,-3.37439 4.97396,-2.5205 4.97397,-2.5205 7.80931,-2.2003 7.80932,-2.2003 12,-0.0279 12,-0.0279 7.96489,2.27085 7.96489,2.27085 6.03511,3.14517 6.03511,3.14517 8.5,8.54894 8.5,8.54893 3.65054,7.5 3.65054,7.5 0.66685,2.25 0.66685,2.25 -11.31739,-0.0502 -11.31739,-0.0502 -2.83976,-5.99193 -2.83976,-5.99194 -5.09849,-5.09849 -5.09849,-5.0985 -6.06175,-2.82142 -6.06175,-2.82142 -7.17039,-1.17135 -7.17038,-1.17135 -7.82962,1.15387 -7.82961,1.15387 -7.35431,3.47978 -7.35432,3.47979 -5.64568,5.78969 -5.64569,5.7897 -2.77185,5.13553 -2.77185,5.13553 -1.97815,7.73449 L 302,396.31993 V 404 v 7.68007 l 1.97815,7.73449 1.97815,7.73449 2.77185,5.13553 2.77185,5.13553 5.50248,5.64335 5.50249,5.64335 3.99751,2.03019 3.99752,2.03019 4.85942,1.64169 4.85941,1.64169 7.28603,1.01339 7.28603,1.01339 6.05579,-0.97526 6.0558,-0.97525 6.60971,-3.05934 6.6097,-3.05933 4.86605,-4.99579 4.86605,-4.99578 2.823,-5.9581 2.82301,-5.95809 11.31739,-0.0502 11.31739,-0.0502 -0.66255,2.25 -0.66254,2.25 -3.62903,7.5 -3.62904,7.5 -8.52581,8.60968 -8.52581,8.60968 -8.5,4.1776 -8.5,4.17761 -9,1.45891 -9,1.45891 -6,-0.11381 z M 127.5,474 H 87 v -70 -70 h 9.992254 9.992256 l 0.25774,60.75 0.25775,60.75 30.25,0.26466 30.25,0.26467 V 465.01466 474 Z"
         id="path337" />
      <path
         style="fill:#000000"
         d="m 224,475.26702 -5.5,0.46674 -5.5,-0.81077 -5.5,-0.81077 -4.45731,-1.58489 -4.45731,-1.5849 -4.6943,-3.01232 -4.6943,-3.01233 -4.50561,-4.81685 -4.5056,-4.81686 -1.98247,-3.89203 L 176.22062,447.5 174.61031,442.0685 173,436.637 v -8.137 -8.137 l 1.61031,-5.4315 1.61031,-5.4315 1.98248,-3.89204 1.98247,-3.89203 4.5056,-4.81686 4.50561,-4.81685 4.80321,-3.08221 4.8032,-3.08221 5.7883,-2.03442 5.78829,-2.03442 9.56011,-0.0211 9.56011,-0.0211 6.38657,2.15322 6.38657,2.15322 5.11343,3.31399 5.11343,3.31399 2.68286,2.87938 2.68287,2.87937 3.5082,5.84331 3.50821,5.8433 1.55893,6.8541 1.55893,6.8541 v 4.60519 4.60519 l -1.55893,6.8541 -1.55893,6.8541 -3.45206,5.8433 -3.45205,5.84331 -4.67175,4.32785 -4.67175,4.32785 -5.59249,2.82308 -5.5925,2.82308 -3.97477,0.99921 -3.97477,0.9992 -5.5,0.46675 z m -2.5,-16.59753 6,-0.25339 4.84268,-2.43159 4.84268,-2.43159 2.90118,-3.30427 2.90118,-3.30426 2.25614,-4.22219 2.25614,-4.2222 -7.7e-4,-10 -7.7e-4,-10 -2.67155,-5.06346 -2.67154,-5.06345 -3.94157,-3.56097 -3.94156,-3.56096 -5.27453,-1.75192 -5.27453,-1.75192 -5.80122,0.52604 -5.80123,0.52604 -4.65304,2.32384 -4.65305,2.32384 -3.05166,3.47566 -3.05167,3.47565 -2.00591,4.53469 -2.00591,4.5347 -0.45859,6.51611 -0.45859,6.51611 1.65592,5.66785 1.65593,5.66786 3.39902,4.45157 3.39903,4.45157 3.56941,2.106 3.56941,2.10601 3.23448,0.98601 3.23449,0.98602 z m 136,16.56457 -6,0.38659 -4,-0.30884 -4,-0.30885 -6,-1.08621 -6,-1.08622 -6.5,-2.559 -6.5,-2.559 -6.5,-4.18613 -6.5,-4.18614 -4.78711,-4.87253 -4.7871,-4.87253 -3.55916,-5.36209 -3.55915,-5.36209 -2.50284,-6.15952 -2.50284,-6.15952 -1.38353,-6.52599 -1.38354,-6.52599 v -9.5 -9.5 l 1.38354,-6.52599 1.38353,-6.52599 2.50284,-6.15952 2.50284,-6.15952 3.54311,-5.31449 3.54312,-5.31449 4.80314,-4.89828 4.80315,-4.89829 6.5,-4.17447 6.5,-4.17447 5.18238,-2.17595 5.18238,-2.17596 6.81762,-1.59146 6.81762,-1.59147 10.60659,-0.01 10.60659,-0.01 7.84834,2.15316 7.84835,2.15316 7.04506,3.69071 7.04507,3.6907 7.07504,7.00613 7.07503,7.00614 3.09767,5.5 3.09768,5.5 2.0627,5.25 2.0627,5.25 H 407.10276 396.2347 l -2.69078,-5.49976 -2.69078,-5.49975 -4.8809,-5.34049 -4.8809,-5.34048 -6.29567,-3.05805 -6.29567,-3.05805 -5.29922,-1.10171 -5.29922,-1.10171 h -4.76712 -4.76712 l -5.93366,1.08379 -5.93366,1.08379 -6.24623,2.9655 -6.24624,2.96549 -5.87277,5.43715 -5.87277,5.43715 -3.6026,6.85576 -3.6026,6.85577 -1.5284,5.8679 -1.52839,5.8679 v 9.5798 9.5798 l 1.50788,5.78914 1.50788,5.78914 2.74212,5.624 2.74212,5.62399 5.40016,5.84281 5.40015,5.84281 4.17975,2.44949 4.17975,2.4495 5.9201,2.05481 5.92009,2.05481 8.01961,0.58212 8.01961,0.58213 5.41793,-1.16194 5.41794,-1.16194 6.28396,-3.09359 6.28397,-3.09358 4.83897,-5.12675 4.83897,-5.12675 2.80687,-5.75 2.80687,-5.75 h 10.86806 10.86806 l -2.0627,5.25 -2.0627,5.25 -3.09768,5.5 -3.09767,5.5 -7.24069,7.18667 -7.2407,7.18668 -9.33434,4.48645 -9.33434,4.48645 -5.5,1.00061 -5.5,1.00061 -6,0.38659 z M 127.5,474 H 87 v -70 -70 h 10 10 v 61 61 h 30.5 30.5 v 9 9 z"
         id="path335" />
    </g>
  </g>
</svg>
